HIERARCHY
ROOT root
{
	OFFSET 0.000000 0.000000 0.000000
	CHANNELS 6 Xposition Yposition Zposition Zrotation Yrotation Xrotation
	JOINT lhip
	{
		OFFSET 0.058581 -0.082280 -0.017664
		CHANNELS 3 Zrotation Yrotation Xrotation
		JOINT lknee
		{
			OFFSET 0.043451 -0.386469 0.008037
			CHANNELS 3 Zrotation Yrotation Xrotation
			JOINT lankle
			{
				OFFSET -0.014790 -0.426874 -0.037428
				CHANNELS 3 Zrotation Yrotation Xrotation
				JOINT ltoe
				{
					OFFSET 0.041054 -0.060286 0.122042
					CHANNELS 3 Zrotation Yrotation Xrotation
					End Site
					{
						OFFSET 0.000000 0.000000 0.000000
					}
				}
			}
		}
	}
	JOINT rhip
	{
		OFFSET -0.060310 -0.090513 -0.013543
		CHANNELS 3 Zrotation Yrotation Xrotation
		JOINT rknee
		{
			OFFSET -0.043257 -0.383688 -0.004843
			CHANNELS 3 Zrotation Yrotation Xrotation
			JOINT rankle
			{
				OFFSET 0.019056 -0.420046 -0.034562
				CHANNELS 3 Zrotation Yrotation Xrotation
				JOINT rtoe
				{
					OFFSET -0.034840 -0.062106 0.130323
					CHANNELS 3 Zrotation Yrotation Xrotation
					End Site
					{
						OFFSET 0.000000 0.000000 0.000000
					}
				}
			}
		}
	}
	JOINT lowerback
	{
		OFFSET 0.004439 0.124404 -0.038385
		CHANNELS 3 Zrotation Yrotation Xrotation
		JOINT upperback
		{
			OFFSET 0.004488 0.137956 0.026820
			CHANNELS 3 Zrotation Yrotation Xrotation
			JOINT chest
			{
				OFFSET -0.002265 0.056032 0.002855
				CHANNELS 3 Zrotation Yrotation Xrotation
				JOINT lowerneck
				{
					OFFSET -0.013390 0.211636 -0.033468
					CHANNELS 3 Zrotation Yrotation Xrotation
					JOINT upperneck
					{
						OFFSET 0.010113 0.088937 0.050410
						CHANNELS 3 Zrotation Yrotation Xrotation
						End Site
						{
							OFFSET 0.000000 0.000000 0.000000
						}
					}
				}
				JOINT lclavicle
				{
					OFFSET 0.071702 0.114000 -0.018898
					CHANNELS 3 Zrotation Yrotation Xrotation
					JOINT lshoulder
					{
						OFFSET 0.122921 0.045205 -0.019046
						CHANNELS 3 Zrotation Yrotation Xrotation
						JOINT lelbow
						{
							OFFSET 0.255332 -0.015649 -0.022946
							CHANNELS 3 Zrotation Yrotation Xrotation
							JOINT lwrist
							{
								OFFSET 0.265709 0.012698 -0.007375
								CHANNELS 3 Zrotation Yrotation Xrotation
								End Site
								{
									OFFSET 0.000000 0.000000 0.000000
								}
							}
						}
					}
				}
				JOINT rclavicle
				{
					OFFSET -0.082954 0.112472 -0.023707
					CHANNELS 3 Zrotation Yrotation Xrotation
					JOINT rshoulder
					{
						OFFSET -0.113228 0.046853 -0.008472
						CHANNELS 3 Zrotation Yrotation Xrotation
						JOINT relbow
						{
							OFFSET -0.260127 -0.014369 -0.031269
							CHANNELS 3 Zrotation Yrotation Xrotation
							JOINT rwrist
							{
								OFFSET -0.269108 0.006794 -0.006027
								CHANNELS 3 Zrotation Yrotation Xrotation
								End Site
								{
									OFFSET 0.000000 0.000000 0.000000
								}
							}
						}
					}
				}
			}
		}
	}
}
MOTION
Frames: 7
Frame Time: 0.033333
1.812174 0.573436 0.994168 -95.094984 4.244112 87.302528 1.639666 -0.346818 0.762428 -3.122188 -11.695149 3.366372 5.528236 9.602219 -12.667784 0.000000 -0.000000 0.000000 4.005643 1.370376 -7.312462 2.635834 -0.797518 16.209465 4.437765 -5.278669 -10.422779 0.000000 -0.000000 0.000000 -1.987927 0.947299 14.805174 2.719406 -0.640918 2.203171 1.056465 -2.206159 6.871452 4.486741 -1.616964 10.646902 1.944603 -6.274140 14.214809 -23.591847 9.202193 3.032702 -57.464268 -9.218740 7.790017 12.431439 -39.967133 0.002437 -2.207587 -1.104878 -11.573485 23.509907 -6.584057 0.302472 60.521720 -0.138831 10.935329 -16.252179 28.560361 -7.085682 6.056407 1.310106 -7.748398 
1.807491 0.573656 0.993299 -94.688006 3.795534 87.221159 1.263386 -0.290784 1.171531 -3.302018 -11.813271 3.322352 5.467440 9.241742 -12.926112 0.000000 -0.000000 0.000000 3.342221 0.525243 -5.827978 2.619145 -1.144210 14.097040 4.471833 -5.347194 -9.152687 0.000000 -0.000000 0.000000 -1.873087 1.054468 14.199644 2.516241 -0.868050 2.302853 0.845883 -2.299213 6.929831 4.087425 -1.526563 10.880565 1.883842 -5.879233 14.345302 -23.697429 9.305026 2.941177 -57.687588 -9.530311 7.742224 12.475993 -40.002278 0.303487 -2.234871 -0.950381 -11.556083 23.419128 -7.035118 0.246293 60.839669 -0.539425 10.748506 -16.331490 28.039521 -7.144810 6.057546 1.138232 -7.700291 
1.802604 0.574139 0.993515 -94.269129 3.749360 87.002664 1.175574 -0.298642 1.850593 -3.087503 -12.102658 3.004278 5.224625 9.178368 -12.778419 0.000000 -0.000000 0.000000 3.200825 0.186911 -4.364520 2.851239 -0.888348 12.581992 4.421920 -5.380409 -9.052223 0.000000 -0.000000 0.000000 -1.337164 0.958325 13.766086 2.406337 -0.920078 2.303096 0.632063 -2.338775 7.056550 3.763632 -1.376532 11.048630 1.649742 -5.583447 14.472084 -24.208315 9.522698 2.680777 -58.066445 -9.510266 7.851690 12.662724 -39.871136 0.386447 -2.491891 -1.262495 -11.944099 23.528772 -7.427235 0.041665 60.588826 -0.664553 10.761070 -16.049856 27.328077 -6.824711 6.003270 0.920310 -7.403773 
1.798782 0.574085 0.995410 -94.254919 3.723894 86.974244 0.999772 -0.564921 1.919020 -3.016612 -11.986852 3.586426 5.115966 9.341628 -13.255727 0.000000 -0.000000 0.000000 3.188731 -0.212741 -3.408642 2.775653 -0.906427 11.423382 4.445833 -5.119025 -8.467472 0.000000 -0.000000 0.000000 -0.799288 1.207679 13.233799 2.266189 -0.757276 2.250461 0.612104 -2.305742 6.920807 3.308872 -1.295217 11.211612 1.814216 -4.833647 14.048243 -24.499786 9.710638 2.615272 -59.250197 -9.405568 7.798044 12.830169 -39.461541 0.030740 -3.022872 -0.801644 -12.589618 23.354732 -7.840053 -0.014746 60.235536 -0.646460 10.557938 -15.725965 27.033244 -6.512255 6.363174 0.766328 -7.312474 
1.796128 0.574459 0.995852 -94.051162 3.756935 86.856504 0.936595 -0.549996 2.153503 -2.805526 -12.054365 3.755699 5.175482 9.345205 -13.450500 0.000000 -0.000000 0.000000 3.196725 -0.442582 -2.552823 2.908723 -0.801956 10.478121 4.425262 -5.188244 -8.439296 0.000000 -0.000000 0.000000 -0.617628 1.210219 12.851018 2.287497 -0.799619 2.447098 0.615024 -2.293142 6.999701 3.329390 -1.366972 10.786406 1.844186 -4.711979 13.756717 -24.670632 9.883339 2.483387 -59.808720 -9.135134 7.993512 12.320491 -39.312141 0.813949 -2.953820 -0.835669 -12.405419 23.181026 -7.959755 -0.175825 60.132128 -0.663164 10.545813 -15.501891 27.230212 -6.381048 6.187629 0.812543 -7.383017 
1.793376 0.575090 0.995616 -93.863650 3.738921 86.764790 0.935162 -0.469970 2.259223 -2.791790 -12.105715 4.127801 5.031216 9.289106 -14.171105 0.000000 -0.000000 0.000000 3.156250 -0.710889 -1.864144 3.115748 -0.572844 9.864542 4.322383 -5.127650 -8.763552 0.000000 -0.000000 0.000000 -0.441459 1.086986 12.472342 2.216273 -0.929510 2.407169 0.519817 -2.202744 7.151434 3.555746 -1.200277 10.292816 1.780239 -4.679961 13.585655 -24.846956 10.022478 2.298758 -60.002611 -8.502530 8.329979 11.015007 -38.957927 2.585372 -2.784497 -0.945146 -11.574324 23.309299 -7.983331 -0.548621 59.769845 -0.485285 10.432208 -15.265754 27.428882 -6.277444 5.747139 0.986257 -7.260095 
1.790668 0.576003 0.995237 -93.700818 3.845053 86.583959 1.148859 -0.342484 2.417577 -2.984954 -12.419581 4.683837 5.028839 9.207882 -14.753756 0.000000 -0.000000 0.000000 3.245362 -0.849375 -0.984651 3.312679 -0.597261 9.096507 4.195035 -5.270855 -8.801980 0.000000 -0.000000 0.000000 -0.265158 1.083361 12.035025 2.261122 -1.057301 2.524074 0.459534 -2.341241 7.203043 3.706956 -1.138396 10.064502 1.559851 -4.626377 13.441520 -25.132613 10.035112 2.320393 -59.790466 -7.787620 8.540749 9.695183 -38.642503 4.779645 -3.527656 -0.988104 -10.738025 23.380495 -8.013224 -0.738858 59.429866 -0.139673 10.324122 -15.238978 27.811960 -6.183856 5.679308 0.996889 -7.356828 
